<svg xmlns="http://www.w3.org/2000/svg" width="299.988" height="480.109" viewBox="0 0 468 749">
  <defs>
    <style>
      .cls-1 {
        fill: #f44336;
      }

      .cls-1, .cls-2, .cls-3, .cls-4 {
        fill-rule: evenodd;
      }

      .cls-1, .cls-2, .cls-4 {
        opacity: 0.7;
      }

      .cls-2 {
        fill: #2196f3;
      }

      .cls-4 {
        fill: #424242;
      }
    </style>
  </defs>
  <path id="Polygone_1" data-name="Polygone 1" class="cls-1" d="M466.934,354.653l-149.171,85.1L167.709,353.124l-0.883-171.738L316,96.282l150.054,86.634Z"/>
  <path id="Polygone_1-2" data-name="Polygone 1" class="cls-2" d="M301.434,259.859l-149.171,85.1L2.209,258.33,1.326,86.592,150.5,1.488,300.551,88.121Z"/>
  <path id="NOVA" class="cls-3" d="M134.818,632.626L110.6,589.951v22.46l24.219,42.579h11.914V583.017H134.818v49.609ZM106.6,654.99V583.017H94.681V654.99H106.6Zm58.643-20.9a33.805,33.805,0,0,0,5.859,11.377,25.779,25.779,0,0,0,8.936,7.129,29.957,29.957,0,0,0,11.132,2.881V645.81a14.726,14.726,0,0,1-6.152-2,15.671,15.671,0,0,1-5.127-5.029,27.134,27.134,0,0,1-3.467-8.252,51.967,51.967,0,0,1,0-23.682,26.569,26.569,0,0,1,3.418-8.2,15.073,15.073,0,0,1,5.078-4.883,16.477,16.477,0,0,1,6.25-2.051v-9.765a29.7,29.7,0,0,0-11.181,2.881,25.949,25.949,0,0,0-8.887,7.128,33.89,33.89,0,0,0-5.859,11.329A57.553,57.553,0,0,0,165.238,634.091Zm29.834-42.48a14.741,14.741,0,0,1,6.152,2,15.85,15.85,0,0,1,5.127,4.98,26.527,26.527,0,0,1,3.467,8.2,52.18,52.18,0,0,1,0,23.731,27.342,27.342,0,0,1-3.418,8.2,15.385,15.385,0,0,1-5.078,4.98,15.985,15.985,0,0,1-6.25,2.1v9.668A29.319,29.319,0,0,0,206.2,652.6a26.1,26.1,0,0,0,8.838-7.129,34.518,34.518,0,0,0,5.909-11.377,56.315,56.315,0,0,0,0-30.81,34.614,34.614,0,0,0-5.909-11.329,26.507,26.507,0,0,0-8.886-7.177,27.783,27.783,0,0,0-11.084-2.832v9.668Zm63.769,63.769h6.152V639.462l-15.136-56.445H236.478ZM269,636.337V655.38h5.079l23.437-72.363H284.232Zm77.149-53.222H334.525l-25.2,71.875h12.207l18.848-53.907,18.652,53.907h12.11Zm-12.4,49.023-2.734,7.91h18.652l-2.832-7.91H333.743Z"/>
  <path id="Count" class="cls-3" d="M186.439,714.667a13.568,13.568,0,0,0-9.18-3.857v4.834a7.121,7.121,0,0,1,2.734.732,8.013,8.013,0,0,1,2.393,1.9Zm-9.18,32.91a14.722,14.722,0,0,0,5.029-1.123,13.466,13.466,0,0,0,4.151-2.783l-4.053-3.564a7.634,7.634,0,0,1-2.368,1.855,7.993,7.993,0,0,1-2.759.781v4.834Zm-14.77-10.717a16.879,16.879,0,0,0,2.905,5.639,13.256,13.256,0,0,0,4.37,3.565,14.1,14.1,0,0,0,5.493,1.465v-4.786a7.488,7.488,0,0,1-3-1.074,7.959,7.959,0,0,1-2.514-2.539,13.547,13.547,0,0,1-1.685-4.1,26.273,26.273,0,0,1,0-11.7,12.909,12.909,0,0,1,1.685-4.077,7.958,7.958,0,0,1,2.49-2.466,8.193,8.193,0,0,1,3.027-1.1V710.81a14.725,14.725,0,0,0-5.493,1.514,13.266,13.266,0,0,0-4.37,3.564,16.928,16.928,0,0,0-2.905,5.615A28.6,28.6,0,0,0,162.489,736.86Zm45-12.622a5.152,5.152,0,0,1,2.295,1.074,7.47,7.47,0,0,1,1.757,2.1,10.31,10.31,0,0,1,1.1,2.857,15.077,15.077,0,0,1,.366,3.393,11.555,11.555,0,0,1-1.538,6.1,6.172,6.172,0,0,1-3.979,3.076v4.688a12.474,12.474,0,0,0,4.785-1.319,11.6,11.6,0,0,0,3.711-2.954,13.754,13.754,0,0,0,2.368-4.3,16.081,16.081,0,0,0,.854-5.3,16.709,16.709,0,0,0-.83-5.322,14.192,14.192,0,0,0-2.319-4.37,11.343,11.343,0,0,0-3.686-3.027,11.8,11.8,0,0,0-4.883-1.294v4.59Zm-12.818,14.6a13.232,13.232,0,0,0,2.32,4.346,11.812,11.812,0,0,0,8.5,4.346v-4.688a4.58,4.58,0,0,1-2.271-1.025,6.975,6.975,0,0,1-1.684-2.1,11.291,11.291,0,0,1-1.05-2.881,15.393,15.393,0,0,1-.366-3.418,12.015,12.015,0,0,1,1.465-6.1,5.938,5.938,0,0,1,3.906-3.076V719.7a12.688,12.688,0,0,0-4.737,1.367,12.058,12.058,0,0,0-3.686,2.954,13.154,13.154,0,0,0-2.368,4.272,16.268,16.268,0,0,0-.83,5.274A17.029,17.029,0,0,0,194.666,738.837Zm37.964-19.043h-5.957v15.479q0,1.171.025,2.392a14.922,14.922,0,0,0,.244,2.417,10.079,10.079,0,0,0,.708,2.295,6.314,6.314,0,0,0,1.318,1.929,17.77,17.77,0,0,0,1.465,1.318,12.141,12.141,0,0,0,1.538,1.05,6.414,6.414,0,0,0,1.733.684,9.172,9.172,0,0,0,2.1.219,9.023,9.023,0,0,0,2.954-.512,18.45,18.45,0,0,0,2.759-1.2v-3.613a10.437,10.437,0,0,1-2.246.635,11.857,11.857,0,0,1-1.807.2,4.426,4.426,0,0,1-2.588-.683,4.2,4.2,0,0,1-1.465-1.807,8.65,8.65,0,0,1-.634-2.612q-0.147-1.489-.147-3.2V719.794Zm10.889,0V744.5l0.635,2.832h5.322V719.794h-5.957Zm14.258,0v27.539h5.908V722.577l-0.635-2.783h-5.273Zm17.48,0.611a7.125,7.125,0,0,0-3.711-.9,9.919,9.919,0,0,0-3,.489,18.1,18.1,0,0,0-2.856,1.171v3.76a9.83,9.83,0,0,1,2.222-.708,10.306,10.306,0,0,1,1.831-.22,4.4,4.4,0,0,1,2.587.66,4.466,4.466,0,0,1,1.465,1.831,8.352,8.352,0,0,1,.684,2.685q0.147,1.515.146,3.174v14.99h5.957V731.855q0-1.172-.048-2.393a17.17,17.17,0,0,0-.269-2.417,10.988,10.988,0,0,0-.684-2.295,6.009,6.009,0,0,0-1.293-1.928A15.782,15.782,0,0,0,275.257,720.405ZM296.6,723.8h4.395v-4H296.6v-7.812h-5.908v7.812h-3.613v4h3.613v14.844q0,0.732.122,2.051a12.036,12.036,0,0,0,.586,2.71,8.074,8.074,0,0,0,1.391,2.539,4.106,4.106,0,0,0,2.588,1.44,11.614,11.614,0,0,0,1.294.147q0.757,0.048,1.49.048t1.489-.024q0.756-.026,1.294-0.073c0.422-.033.846-0.082,1.269-0.147V743.72a17.432,17.432,0,0,1-2.124-.122,4.49,4.49,0,0,1-1.806-.61,3.209,3.209,0,0,1-1.245-1.416,6.172,6.172,0,0,1-.44-2.588V723.8Z"/>
  <path id="Polygone_1-3" data-name="Polygone 1" class="cls-4" d="M302.934,448.314l-149.171,85.1L3.709,446.784,2.826,275.046,152,189.942l150.054,86.634Z"/>
</svg>
